<mxfile host="app.diagrams.net" modified="2024-05-16T07:08:17.527Z" agent="Mozilla/5.0 (Macintosh; Intel Mac OS X 10_15_7) AppleWebKit/537.36 (KHTML, like Gecko) Chrome/124.0.0.0 Safari/537.36" etag="kV-4aEATsLCY4FsXdESV" version="24.3.0" type="github">
  <diagram name="第 1 页" id="ttoYiCIp980x_wAXowm9">
    <mxGraphModel dx="1194" dy="731" grid="1" gridSize="10" guides="1" tooltips="1" connect="1" arrows="1" fold="1" page="1" pageScale="1" pageWidth="827" pageHeight="1169" math="0" shadow="0">
      <root>
        <mxCell id="0" />
        <mxCell id="1" parent="0" />
        <mxCell id="Nty90zuvUy5CpMmrhCRr-1" value="t.cache" style="whiteSpace=wrap;html=1;aspect=fixed;" vertex="1" parent="1">
          <mxGeometry x="130" y="260" width="80" height="80" as="geometry" />
        </mxCell>
        <mxCell id="Nty90zuvUy5CpMmrhCRr-2" value="img.data" style="whiteSpace=wrap;html=1;aspect=fixed;" vertex="1" parent="1">
          <mxGeometry x="270" y="260" width="80" height="80" as="geometry" />
        </mxCell>
        <mxCell id="Nty90zuvUy5CpMmrhCRr-3" value="" style="endArrow=classic;html=1;rounded=0;exitX=1;exitY=0.5;exitDx=0;exitDy=0;" edge="1" parent="1" source="Nty90zuvUy5CpMmrhCRr-1" target="Nty90zuvUy5CpMmrhCRr-2">
          <mxGeometry width="50" height="50" relative="1" as="geometry">
            <mxPoint x="390" y="520" as="sourcePoint" />
            <mxPoint x="440" y="470" as="targetPoint" />
          </mxGeometry>
        </mxCell>
        <mxCell id="Nty90zuvUy5CpMmrhCRr-4" value="拷贝到" style="text;html=1;align=center;verticalAlign=middle;resizable=0;points=[];autosize=1;strokeColor=none;fillColor=none;" vertex="1" parent="1">
          <mxGeometry x="210" y="268" width="60" height="30" as="geometry" />
        </mxCell>
        <mxCell id="Nty90zuvUy5CpMmrhCRr-6" value="img.data" style="whiteSpace=wrap;html=1;aspect=fixed;" vertex="1" parent="1">
          <mxGeometry x="270" y="350" width="80" height="80" as="geometry" />
        </mxCell>
        <mxCell id="Nty90zuvUy5CpMmrhCRr-7" value="img.data" style="whiteSpace=wrap;html=1;aspect=fixed;" vertex="1" parent="1">
          <mxGeometry x="270" y="170" width="80" height="80" as="geometry" />
        </mxCell>
        <mxCell id="Nty90zuvUy5CpMmrhCRr-9" value="" style="endArrow=classic;html=1;rounded=0;exitX=0.5;exitY=0;exitDx=0;exitDy=0;entryX=0;entryY=0.5;entryDx=0;entryDy=0;" edge="1" parent="1" source="Nty90zuvUy5CpMmrhCRr-1" target="Nty90zuvUy5CpMmrhCRr-7">
          <mxGeometry width="50" height="50" relative="1" as="geometry">
            <mxPoint x="390" y="520" as="sourcePoint" />
            <mxPoint x="440" y="470" as="targetPoint" />
          </mxGeometry>
        </mxCell>
        <mxCell id="Nty90zuvUy5CpMmrhCRr-10" value="" style="endArrow=classic;html=1;rounded=0;exitX=0.5;exitY=1;exitDx=0;exitDy=0;entryX=0;entryY=0.5;entryDx=0;entryDy=0;" edge="1" parent="1" source="Nty90zuvUy5CpMmrhCRr-1" target="Nty90zuvUy5CpMmrhCRr-6">
          <mxGeometry width="50" height="50" relative="1" as="geometry">
            <mxPoint x="390" y="520" as="sourcePoint" />
            <mxPoint x="440" y="470" as="targetPoint" />
          </mxGeometry>
        </mxCell>
      </root>
    </mxGraphModel>
  </diagram>
</mxfile>
